<svg id="Layer_1" data-name="Layer 1" xmlns="http://www.w3.org/2000/svg" xmlns:xlink="http://www.w3.org/1999/xlink" width="400" height="72" viewBox="0 0 400 72"><defs><style>.cls-1{fill:none;}.cls-2{fill:#fff;}.cls-3{clip-path:url(#clip-path);}.cls-4{clip-path:url(#clip-path-2);}.cls-5{fill:#0599a8;}.cls-6{fill:#54575a;}</style><clipPath id="clip-path"><rect class="cls-1" x="5" y="6" width="189.6018" height="60"/></clipPath><clipPath id="clip-path-2"><rect class="cls-1" x="5" y="6.0006" width="189.6018" height="59.9994"/></clipPath></defs><rect class="cls-2" width="400" height="72"/><g class="cls-3"><g class="cls-4"><path class="cls-5" d="M56.5451,28.8659a3.9564,3.9564,0,0,0,2.624-.9243q.58-.718.58-3.3237V11.232a3.3431,3.3431,0,0,0-.5638-2.3249,4.347,4.347,0,0,0-2.56-.6359V7.66h6.5008L70.7,24.086,78.089,7.66h6.5528v.6111a3.9237,3.9237,0,0,0-2.3663.669,3.42,3.42,0,0,0-.5319,2.2918V25.8885a3.3882,3.3882,0,0,0,.5319,2.3108,4.2554,4.2554,0,0,0,2.3663.6666v.6123H75.4165v-.6123a4.0549,4.0549,0,0,0,2.4869-.7151,4.52,4.52,0,0,0,.4917-2.6476V10.7013L69.95,29.4782h-.4515l-8.3-18.0051V24.6179q0,2.7056.7884,3.5246a4.0064,4.0064,0,0,0,2.3025.7234v.6123H56.5451Z"/><path class="cls-5" d="M95.5076,15.9438a5.7488,5.7488,0,0,1,1.7068,4.4537H86.99q.1614,3.725,1.6914,5.4288A4.7144,4.7144,0,0,0,92.3033,27.53a4.5683,4.5683,0,0,0,2.8509-.883A8.8978,8.8978,0,0,0,97.2959,24.14l.5627.1938a9.1683,9.1683,0,0,1-2.4716,3.7894,6.1606,6.1606,0,0,1-4.4359,1.7411,5.4248,5.4248,0,0,1-4.6771-2.286,8.7628,8.7628,0,0,1-1.6512-5.2645A8.5624,8.5624,0,0,1,86.54,16.7251a6.1332,6.1332,0,0,1,4.9914-2.3509,5.6929,5.6929,0,0,1,3.9762,1.57m-7.7124,1.2328a6.3471,6.3471,0,0,0-.74,2.19h6.794a6.6756,6.6756,0,0,0-.6123-2.4006,2.7759,2.7759,0,0,0-2.6393-1.416,3.0763,3.0763,0,0,0-2.8025,1.6264"/><path class="cls-5" d="M97.5443,29.0275a3.8073,3.8073,0,0,0,2.0282-.604,2.3336,2.3336,0,0,0,.5319-1.7954V10.896a4.0963,4.0963,0,0,0-.1773-1.4645,1.2974,1.2974,0,0,0-1.3037-.6761,2.6783,2.6783,0,0,0-.4917.0485c-.1773.0319-.3995.0792-.6678.1442V8.4174q2.1737-.5816,5.2326-1.5461a.1242.1242,0,0,1,.1371.0958,2.1515,2.1515,0,0,1,.0248.4184V26.6919a2.4191,2.4191,0,0,0,.4823,1.812,3.763,3.763,0,0,0,1.9963.5236v.45H97.5443Z"/><path class="cls-5" d="M105.1007,8.9961V8.4488a30.3288,30.3288,0,0,0,3.3119-.9337A15.8531,15.8531,0,0,1,109.9965,7a.61.61,0,0,1,.0319.1939v9.8056a5.0267,5.0267,0,0,1,1.2529-1.4656,5.2372,5.2372,0,0,1,3.4088-1.2068,5.0919,5.0919,0,0,1,4.0353,1.9952,7.8081,7.8081,0,0,1,1.6725,5.1853,8.4644,8.4644,0,0,1-2.1737,5.8448,7.2987,7.2987,0,0,1-5.716,2.4314,9.1485,9.1485,0,0,1-3.5105-.708q-1.7233-.7092-1.7233-1.4172V10.639a2.53,2.53,0,0,0-.2577-1.3285q-.2571-.3954-1.1914-.3948Zm6.13,19.3146a6.37,6.37,0,0,0,1.94.3629,3.6767,3.6767,0,0,0,3.3272-1.6891A7.4164,7.4164,0,0,0,117.58,22.9a9.817,9.817,0,0,0-1.0106-4.43,3.4057,3.4057,0,0,0-3.27-2.0342,4.0774,4.0774,0,0,0-2.2292.7,2.0609,2.0609,0,0,0-1.09,1.7766v8.2005a1.5971,1.5971,0,0,0,1.2506,1.1985"/><path class="cls-5" d="M124.0178,16.5882a6.8032,6.8032,0,0,1,5.2409-2.2138,7.158,7.158,0,0,1,5.281,2.0933,7.5289,7.5289,0,0,1,2.0933,5.5706,8.2909,8.2909,0,0,1-2.0283,5.5719,6.5943,6.5943,0,0,1-5.2491,2.3675,6.9226,6.9226,0,0,1-5.2338-2.2706,7.987,7.987,0,0,1-2.1406-5.6995,7.71,7.71,0,0,1,2.0366-5.4194m2.5708-.41q-1.6134,1.4644-1.6134,5.0553a11.3451,11.3451,0,0,0,1.299,5.3461,3.9739,3.9739,0,0,0,3.605,2.48,3.0672,3.0672,0,0,0,2.7836-1.6583,8.5156,8.5156,0,0,0,.9751-4.3485,11.5055,11.5055,0,0,0-1.2411-5.248,3.897,3.897,0,0,0-3.5979-2.4644,3.2026,3.2026,0,0,0-2.21.838"/><path class="cls-5" d="M142.0167,14.5679V24.8735a4.208,4.208,0,0,0,.3061,1.7541,2.21,2.21,0,0,0,2.19,1.2233,3.7249,3.7249,0,0,0,2.1405-.7233,6.3417,6.3417,0,0,0,1.208-1.1111V17.1931a2.0512,2.0512,0,0,0-.4822-1.6264,3.6584,3.6584,0,0,0-1.9326-.4681v-.5307h5.2007V25.903a2.18,2.18,0,0,0,.3948,1.5059,2.265,2.265,0,0,0,1.6654.3628v.45q-.8847.241-1.3037.3617-.4184.1222-1.4006.4432-.4185.1435-1.8356.6915a.0862.0862,0,0,1-.097-.071.8006.8006,0,0,1-.0165-.17v-2.592a10.8342,10.8342,0,0,1-1.9964,1.9325,4.94,4.94,0,0,1-2.8982.9657,4.1324,4.1324,0,0,1-2.6405-1,3.9509,3.9509,0,0,1-1.2564-3.3048V17.1115a2.1078,2.1078,0,0,0-.5461-1.7091,3.3191,3.3191,0,0,0-1.5141-.3842v-.45Z"/><path class="cls-5" d="M153.6182,28.9467a3.8982,3.8982,0,0,0,1.9645-.5224,2.16,2.16,0,0,0,.4834-1.6831V19.4779a6.2166,6.2166,0,0,0-.2979-2.2776,1.0874,1.0874,0,0,0-1.0874-.6844,2.8046,2.8046,0,0,0-.4267.0414c-.1773.026-.3629.06-.5555.1028v-.5307q.9149-.3209,1.8781-.6595t1.3321-.4846c.5343-.2022,1.0863-.4338,1.6536-.69.0745,0,.1206.026.1359.0792a1.45,1.45,0,0,1,.0237.338v2.64a12.3137,12.3137,0,0,1,1.994-2.2374,3.08,3.08,0,0,1,1.9951-.805,1.8627,1.8627,0,0,1,1.3392.4906,1.7422,1.7422,0,0,1,.1229,2.3438,1.2625,1.2625,0,0,1-.99.45,1.8508,1.8508,0,0,1-1.2317-.5638,1.7526,1.7526,0,0,0-.9739-.5638q-.5639,0-1.3853.91a2.7942,2.7942,0,0,0-.8215,1.8758v7.2608a2.4032,2.4032,0,0,0,.6442,1.9243,3.2261,3.2261,0,0,0,2.1417.5082v.5307h-7.9381Z"/><path class="cls-5" d="M165.4784,29.0275a2.9035,2.9035,0,0,0,1.6016-.5721,2.7246,2.7246,0,0,0,.46-1.9089V18.3672a3.7734,3.7734,0,0,0-.1926-1.4372,1.27,1.27,0,0,0-1.2565-.6076,2.8468,2.8468,0,0,0-.2978.0166c-.1029.0106-.2281.0272-.3782.0484v-.5638q.6594-.1932,3.1227-.9987l1.5141-.4988c.0757,0,.1206.0272.1371.08a.81.81,0,0,1,.0237.2258v2.3663a16.5329,16.5329,0,0,1,2.3143-1.8994,4.8223,4.8223,0,0,1,2.6039-.7884,3.4032,3.4032,0,0,1,1.9928.6276q1.7357,1.2234,1.7363,4.3627v7.5209a2.4721,2.4721,0,0,0,.4622,1.6737,2.0442,2.0442,0,0,0,1.5495.5319v.45h-6.8743v-.45a2.7565,2.7565,0,0,0,1.6417-.6525,3.31,3.31,0,0,0,.4669-2.1334V19.366a4.6249,4.6249,0,0,0-.5118-2.2942,1.9775,1.9775,0,0,0-1.89-.91,3.4911,3.4911,0,0,0-1.9219.6441,11.0259,11.0259,0,0,0-1.4077,1.2234v9.0173a1.8783,1.8783,0,0,0,.5154,1.5543,2.8332,2.8332,0,0,0,1.6252.4267v.45h-7.0363Z"/><path class="cls-5" d="M192.25,15.9438a5.7484,5.7484,0,0,1,1.7068,4.4537H183.7328q.1614,3.725,1.6914,5.4288a4.7144,4.7144,0,0,0,3.6216,1.7033,4.5683,4.5683,0,0,0,2.8509-.883,8.8978,8.8978,0,0,0,2.1417-2.5069l.5627.1938a9.1683,9.1683,0,0,1-2.4716,3.7894,6.1606,6.1606,0,0,1-4.4359,1.7411,5.4248,5.4248,0,0,1-4.6771-2.286,8.7628,8.7628,0,0,1-1.6512-5.2645,8.5624,8.5624,0,0,1,1.9172-5.5884,6.1332,6.1332,0,0,1,4.9914-2.3509,5.6929,5.6929,0,0,1,3.9762,1.57m-7.7124,1.2328a6.3471,6.3471,0,0,0-.74,2.19h6.794a6.6756,6.6756,0,0,0-.6123-2.4006A2.7759,2.7759,0,0,0,187.34,15.55a3.0763,3.0763,0,0,0-2.8025,1.6264"/><path class="cls-5" d="M26.3335,6A21.3341,21.3341,0,1,0,47.6681,27.3345,21.3339,21.3339,0,0,0,26.3335,6M6.838,22.9269,6.71,22.66q.2057-.8686.4846-1.7044c1.955,4.7764,5.8922,10.7335,12.57,12.5195a15.9089,15.9089,0,0,0,3.8675.5342c.0992.0024.1051-.052.0059-.0626-4.08-.5047-9.1958-3.14-12.0195-9.7217a21.71,21.71,0,0,1-1.6158-8.73A20.1926,20.1926,0,0,1,31.4384,7.813a14.2531,14.2531,0,0,0-12.4769,3.4845c-3.2694,3.1961-4.25,7.7077-2.7623,12.7,2.1548,7.229,7.1167,9.8069,10.8174,9.1426a4.89,4.89,0,0,0,3.1559-1.9172,4.6758,4.6758,0,0,0,.7553-3.5837,3.973,3.973,0,0,0-4.6109-3.2067,2.9808,2.9808,0,0,0-2.3923,3.5814s.0284.1158-.0449.1347-.117-.0839-.117-.0839a2.9244,2.9244,0,0,1-.0083-1.9373,3.3955,3.3955,0,0,1,2.5141-2.2516A4.3661,4.3661,0,0,1,31.5649,27.48a4.8238,4.8238,0,0,1-1.169,4.4608,6.8111,6.8111,0,0,1-3.1854,1.9432,16.6385,16.6385,0,0,1-7.3223.2151c-6.74-1.3522-10.8057-6.7739-13.05-11.1721m22.19-2.2043c4.08.5035,9.1969,3.1393,12.0195,9.7205a21.7077,21.7077,0,0,1,1.6157,8.7289A20.1822,20.1822,0,0,1,21.23,46.8537,14.25,14.25,0,0,0,33.7054,43.37c3.2694-3.1973,4.25-7.7077,2.7623-12.7015-2.1547-7.2278-7.1167-9.8057-10.8174-9.14a4.8766,4.8766,0,0,0-3.1547,1.9171,4.6722,4.6722,0,0,0-.7565,3.5838A3.9734,3.9734,0,0,0,26.35,30.2351a2.98,2.98,0,0,0,2.3923-3.5814s-.0272-.1158.0461-.1347.117.0839.117.0839a2.9242,2.9242,0,0,1,.0083,1.9372,3.4008,3.4008,0,0,1-2.5152,2.2529,4.37,4.37,0,0,1-5.2965-3.605,4.8265,4.8265,0,0,1,1.17-4.462,6.8066,6.8066,0,0,1,3.1854-1.942,16.6408,16.6408,0,0,1,7.3212-.2163c6.74,1.3546,10.8044,6.7751,13.0513,11.172l.1265.2684q-.2057.8668-.4846,1.7032c-1.9538-4.7764-5.891-10.7323-12.5691-12.5195a15.9846,15.9846,0,0,0-3.8686-.5342c-.0981-.0012-.104.052-.0059.065"/><path class="cls-6" d="M57.0141,47.7135a.2245.2245,0,0,1-.0685-.1666V41.1158a.2528.2528,0,0,1,.0638-.1773.2242.2242,0,0,1,.1725-.07H59.83a2.8693,2.8693,0,0,1,1.8663.5591,1.9907,1.9907,0,0,1,.682,1.6347,1.969,1.969,0,0,1-.6773,1.6252,2.9017,2.9017,0,0,1-1.871.5484H58.3568v2.3108a.2346.2346,0,0,1-.0638.1666.2244.2244,0,0,1-.1726.07h-.9385a.2285.2285,0,0,1-.1678-.07M59.78,44.1393a1.2864,1.2864,0,0,0,.8794-.2719,1.0212,1.0212,0,0,0,.305-.8049,1.0761,1.0761,0,0,0-.2955-.8049,1.2166,1.2166,0,0,0-.8889-.292h-1.442v2.1737Z"/><path class="cls-6" d="M64.6662,47.7143a.2268.2268,0,0,1-.07-.1679v-6.43a.2544.2544,0,0,1,.0638-.1785.2246.2246,0,0,1,.1738-.0686h2.5577a2.9,2.9,0,0,1,1.8912.5627,1.954,1.954,0,0,1,.6867,1.6,2.0218,2.0218,0,0,1-.351,1.21,1.9452,1.9452,0,0,1-.9728.7056l1.442,2.5188a.2469.2469,0,0,1,.0308.11.1973.1973,0,0,1-.065.1478.2075.2075,0,0,1-.1431.0579h-.8983a.37.37,0,0,1-.2423-.0685.6347.6347,0,0,1-.1536-.1974l-1.2742-2.3415H65.97v2.371a.2318.2318,0,0,1-.065.1679.2233.2233,0,0,1-.1725.0685h-.8983a.2256.2256,0,0,1-.1679-.0685M67.3623,44.06a1.309,1.309,0,0,0,.8936-.2671.9719.9719,0,0,0,.3014-.7695,1.0057,1.0057,0,0,0-.3014-.78,1.28,1.28,0,0,0-.8936-.2766H65.97V44.06Z"/><path class="cls-6" d="M72.433,47.714a.2265.2265,0,0,1-.07-.1678V41.1068a.2245.2245,0,0,1,.07-.1726.2389.2389,0,0,1,.1678-.065h.9279a.2375.2375,0,0,1,.1737.065.2337.2337,0,0,1,.0638.1726v6.4394a.2355.2355,0,0,1-.0638.1678.227.227,0,0,1-.1737.07h-.9279a.2284.2284,0,0,1-.1678-.07"/><path class="cls-6" d="M78.1178,47.5074l-2.1146-6.3413-.0189-.0886a.1969.1969,0,0,1,.0591-.1478.1947.1947,0,0,1,.149-.06h.8687a.3.3,0,0,1,.2021.0639.3522.3522,0,0,1,.104.1536l1.669,5.0861,1.6689-5.0861a.2913.2913,0,0,1,.0993-.1489.3016.3016,0,0,1,.2069-.0686h.87a.2.2,0,0,1,.143.06.1923.1923,0,0,1,.0638.1478l-.02.0886-2.1134,6.3413a.3622.3622,0,0,1-.3747.2754H78.4925a.3622.3622,0,0,1-.3747-.2754"/><path class="cls-6" d="M83.1647,47.7245a.19.19,0,0,1-.065-.1477l.02-.0887,2.38-6.372a.32.32,0,0,1,.3451-.247h1.0768a.34.34,0,0,1,.3463.247l2.3793,6.372a.2714.2714,0,0,1,.0107.0887.2013.2013,0,0,1-.0591.1477.1937.1937,0,0,1-.1383.0591h-.8593a.2938.2938,0,0,1-.1974-.0591.2525.2525,0,0,1-.0886-.1288L87.85,46.3913H84.9176l-.4645,1.2044a.2863.2863,0,0,1-.2861.1879h-.8593a.2065.2065,0,0,1-.143-.0591m4.34-2.4691-1.1264-3.0519-1.1146,3.0519Z"/><path class="cls-6" d="M92.7027,47.714a.2265.2265,0,0,1-.07-.1678V42.0843H90.8068a.23.23,0,0,1-.169-.0686.2273.2273,0,0,1-.0686-.1678v-.7317a.2469.2469,0,0,1,.065-.1773.2227.2227,0,0,1,.1726-.07h5.0364a.2369.2369,0,0,1,.247.247v.7317a.2273.2273,0,0,1-.0686.1678.24.24,0,0,1-.1784.0686H94.0265v5.4619a.23.23,0,0,1-.0686.1678.2452.2452,0,0,1-.1785.07h-.9089a.2284.2284,0,0,1-.1678-.07"/><path class="cls-6" d="M98.3378,47.714a.2264.2264,0,0,1-.07-.1678v-6.43a.2469.2469,0,0,1,.065-.1773.2245.2245,0,0,1,.1726-.07h4.3461a.2385.2385,0,0,1,.247.247v.6525a.2245.2245,0,0,1-.07.1726.2513.2513,0,0,1-.1773.0638h-3.25v1.7481h3.0329a.2521.2521,0,0,1,.1773.065.2245.2245,0,0,1,.07.1726v.6123a.2251.2251,0,0,1-.07.1737.25.25,0,0,1-.1773.0627H99.6014v1.8084h3.33a.2367.2367,0,0,1,.247.247v.6513a.225.225,0,0,1-.07.1737.251.251,0,0,1-.1773.0639H98.5057a.2286.2286,0,0,1-.1679-.07"/><path class="cls-6" d="M108.7188,47.714a.2265.2265,0,0,1-.07-.1678v-6.43a.2469.2469,0,0,1,.065-.1773.2245.2245,0,0,1,.1726-.07h.8983a.2245.2245,0,0,1,.1726.07.2469.2469,0,0,1,.065.1773v2.5484h2.9135V41.1162a.2465.2465,0,0,1,.0651-.1773.2223.2223,0,0,1,.1725-.07h.8889a.2366.2366,0,0,1,.2458.247v6.43a.2242.2242,0,0,1-.0685.1737.251.251,0,0,1-.1773.0639h-.8889a.233.233,0,0,1-.169-.07.2254.2254,0,0,1-.0686-.1678V44.9h-2.9135v2.6465a.2318.2318,0,0,1-.065.1678.2245.2245,0,0,1-.1726.07h-.8983a.2284.2284,0,0,1-.1678-.07"/><path class="cls-6" d="M117.5374,47.2008a2.7108,2.7108,0,0,1-.79-2.0247c-.0071-.19-.0106-.4716-.0106-.8392q0-.5639.0106-.85a2.7037,2.7037,0,0,1,.81-2.0152,3.427,3.427,0,0,1,4.1534,0,2.6934,2.6934,0,0,1,.8144,2.0152q.02.5727.02.85,0,.266-.02.8392a2.7385,2.7385,0,0,1-.8,2.0247,3.5552,3.5552,0,0,1-4.1877,0m3.1511-.8546a1.7683,1.7683,0,0,0,.4243-1.22c.013-.3947.02-.6619.02-.8,0-.1512-.0071-.4184-.02-.8a1.77,1.77,0,0,0-.4243-1.22,1.5844,1.5844,0,0,0-2.1039,0,1.7648,1.7648,0,0,0-.4243,1.22c-.0071.1915-.0107.4587-.0107.8,0,.3357.0036.6029.0107.8a1.7783,1.7783,0,0,0,.42,1.22,1.3989,1.3989,0,0,0,1.0519.4007,1.4173,1.4173,0,0,0,1.0567-.4007"/><path class="cls-6" d="M125.9405,47.6159a2.2722,2.2722,0,0,1-.9586-.7021,1.65,1.65,0,0,1-.3451-.9385.2052.2052,0,0,1,.0591-.1477.2.2,0,0,1,.1477-.0579h.8794a.3115.3115,0,0,1,.1832.0437.4477.4477,0,0,1,.123.143,1.01,1.01,0,0,0,.4538.5626,1.79,1.79,0,0,0,.9693.2282,1.95,1.95,0,0,0,1.0566-.2329.7313.7313,0,0,0,.3558-.6465.6039.6039,0,0,0-.1832-.4539,1.4851,1.4851,0,0,0-.5437-.3073q-.36-.1276-1.0709-.3168a4.1,4.1,0,0,1-1.7044-.7352,1.6258,1.6258,0,0,1-.5378-1.3084,1.7324,1.7324,0,0,1,.3109-1.0165,2.08,2.08,0,0,1,.9-.7021,3.3843,3.3843,0,0,1,1.3675-.2565,3.2005,3.2005,0,0,1,1.4018.286,2.322,2.322,0,0,1,.9042.7163,1.5844,1.5844,0,0,1,.331.8546.2013.2013,0,0,1-.0591.1477.2042.2042,0,0,1-.1489.0591h-.9184a.2858.2858,0,0,1-.2861-.1867.7985.7985,0,0,0-.3947-.5284,1.5117,1.5117,0,0,0-.83-.2127,1.5754,1.5754,0,0,0-.87.208.6736.6736,0,0,0-.3156.6016.6576.6576,0,0,0,.1584.4539,1.3191,1.3191,0,0,0,.4988.3168,8.5138,8.5138,0,0,0,.9822.3061,6.8126,6.8126,0,0,1,1.3876.4444,1.8207,1.8207,0,0,1,.7659.6218,1.715,1.715,0,0,1,.2471.9585,1.7873,1.7873,0,0,1-.3511,1.1016,2.182,2.182,0,0,1-.9869.7163,4.0759,4.0759,0,0,1-1.4668.247,3.885,3.885,0,0,1-1.5118-.2671"/><path class="cls-6" d="M132.586,47.7135a.2245.2245,0,0,1-.0685-.1666V41.1158a.2532.2532,0,0,1,.0638-.1773.2245.2245,0,0,1,.1726-.07h2.6476a2.8689,2.8689,0,0,1,1.8663.5591,1.9907,1.9907,0,0,1,.682,1.6347,1.9693,1.9693,0,0,1-.6772,1.6252,2.902,2.902,0,0,1-1.8711.5484h-1.4727v2.3108a.2347.2347,0,0,1-.0639.1666.2242.2242,0,0,1-.1725.07h-.9385a.2286.2286,0,0,1-.1679-.07m2.7659-3.5742a1.2861,1.2861,0,0,0,.8793-.2719,1.0212,1.0212,0,0,0,.305-.8049,1.0761,1.0761,0,0,0-.2955-.8049,1.2165,1.2165,0,0,0-.8888-.292H133.91v2.1737Z"/><path class="cls-6" d="M140.2379,47.714a.2264.2264,0,0,1-.07-.1678V41.1068a.2245.2245,0,0,1,.07-.1726.2391.2391,0,0,1,.1678-.065h.9279a.2373.2373,0,0,1,.1737.065.2338.2338,0,0,1,.0639.1726v6.4394a.2356.2356,0,0,1-.0639.1678.2268.2268,0,0,1-.1737.07h-.9279a.2285.2285,0,0,1-.1678-.07"/><path class="cls-6" d="M145.8973,47.714a.2264.2264,0,0,1-.07-.1678V42.0843h-1.8262a.23.23,0,0,1-.169-.0686.2272.2272,0,0,1-.0685-.1678v-.7317a.2465.2465,0,0,1,.065-.1773.2225.2225,0,0,1,.1725-.07h5.0364a.2369.2369,0,0,1,.2471.247v.7317a.2273.2273,0,0,1-.0686.1678.2405.2405,0,0,1-.1785.0686h-1.8167v5.4619a.23.23,0,0,1-.0685.1678.2452.2452,0,0,1-.1785.07h-.9089a.2286.2286,0,0,1-.1679-.07"/><path class="cls-6" d="M150.25,47.7245a.19.19,0,0,1-.065-.1477l.02-.0887,2.3805-6.372a.32.32,0,0,1,.3451-.247h1.0768a.34.34,0,0,1,.3463.247l2.3793,6.372a.2714.2714,0,0,1,.0107.0887.2013.2013,0,0,1-.0591.1477.1937.1937,0,0,1-.1383.0591h-.8593a.2938.2938,0,0,1-.1974-.0591.2525.2525,0,0,1-.0886-.1288l-.4657-1.2044h-2.9325l-.4645,1.2044a.2863.2863,0,0,1-.2861.1879h-.8593a.2065.2065,0,0,1-.143-.0591m4.34-2.4691-1.1264-3.0519L152.35,45.2554Z"/><path class="cls-6" d="M158.9538,47.714a.2265.2265,0,0,1-.07-.1678V41.1068a.2245.2245,0,0,1,.07-.1726.2389.2389,0,0,1,.1678-.065h.9184a.2349.2349,0,0,1,.1726.065.23.23,0,0,1,.065.1726v5.5009h3.131a.2387.2387,0,0,1,.2471.247v.6915a.225.225,0,0,1-.07.1737.251.251,0,0,1-.1773.0639h-4.287a.2284.2284,0,0,1-.1678-.07"/><path class="cls-5" d="M58.9744,62.5818v.5036a.3258.3258,0,0,1-.0886.2316.31.31,0,0,1-.2388.0946H57.5714a.3249.3249,0,0,1-.3274-.3262V54.07a.3091.3091,0,0,1,.0957-.2387.3283.3283,0,0,1,.2317-.0887h1.1572a.3057.3057,0,0,1,.3274.3274v3.0235a2.629,2.629,0,0,1,2.0968-.8994,2.5716,2.5716,0,0,1,2.111.8994,3.7962,3.7962,0,0,1,.79,2.3273c.0094.11.0141.2554.0141.4374,0,.19-.0047.34-.0141.4479a3.7984,3.7984,0,0,1-.79,2.3569,2.5867,2.5867,0,0,1-2.111.8853,2.635,2.635,0,0,1-2.1784-.9669m3.241-2.3013c.0083-.091.013-.2269.013-.4089s-.0047-.318-.013-.4078q-.0957-1.812-1.5661-1.812a1.4257,1.4257,0,0,0-1.1643.4835A1.8808,1.8808,0,0,0,59.056,59.3l-.0142.5165.0142.5331a2.2017,2.2017,0,0,0,.4219,1.2375,1.3719,1.3719,0,0,0,1.1714.5047q1.47,0,1.5661-1.8108"/><path class="cls-5" d="M66.3829,65.9181a.2613.2613,0,0,1-.0815-.19.4326.4326,0,0,1,.0543-.2187L67.4171,62.99l-2.6133-6.1687a.5152.5152,0,0,1-.0544-.19.3559.3559,0,0,1,.0946-.2116.2667.2667,0,0,1,.2045-.0886h1.1027a.3762.3762,0,0,1,.3676.2577L68.33,61.0424l1.8664-4.4536a.3771.3771,0,0,1,.3676-.2577h1.09a.2836.2836,0,0,1,.1974.0815.2519.2519,0,0,1,.0887.19.5479.5479,0,0,1-.0544.2187l-3.8544,8.92A.4018.4018,0,0,1,67.65,66H66.5732a.2613.2613,0,0,1-.19-.0815"/><path class="cls-5" d="M76.133,63.3175a.3149.3149,0,0,1-.0957-.2317V54.22a.3438.3438,0,0,1,.0886-.2446.3092.3092,0,0,1,.2388-.0958h1.2387a.3092.3092,0,0,1,.2388.0958.3438.3438,0,0,1,.0886.2446v3.5129h4.0175V54.22a.3387.3387,0,0,1,.0887-.2446.3066.3066,0,0,1,.2376-.0958H83.5a.3279.3279,0,0,1,.34.34v8.866a.3106.3106,0,0,1-.0958.2388.343.343,0,0,1-.2446.0875H82.2746a.323.323,0,0,1-.3263-.3263v-3.65H77.9308v3.65a.3279.3279,0,0,1-.0886.2317.3084.3084,0,0,1-.2388.0946H76.3647a.3141.3141,0,0,1-.2317-.0946"/><path class="cls-5" d="M86.4482,62.67a3.4911,3.4911,0,0,1-.9455-2.4716l-.0142-.34.0142-.34a3.5077,3.5077,0,0,1,.96-2.4384,3.2448,3.2448,0,0,1,2.39-.8853,3.1649,3.1649,0,0,1,2.4857.9811,3.7736,3.7736,0,0,1,.8782,2.6145v.286a.3148.3148,0,0,1-.0958.2317.334.334,0,0,1-.2446.0957H87.3548v.1088a2.154,2.154,0,0,0,.4149,1.26,1.2693,1.2693,0,0,0,1.0685.5106,1.5606,1.5606,0,0,0,1.2943-.6277.8652.8652,0,0,1,.1973-.19.4925.4925,0,0,1,.2258-.04h1.17a.3118.3118,0,0,1,.2115.0756.2277.2277,0,0,1,.0887.1832,1.2688,1.2688,0,0,1-.3877.7683,3.2384,3.2384,0,0,1-1.1111.7706,4.0283,4.0283,0,0,1-1.6748.3263,3.2762,3.2762,0,0,1-2.4042-.8782m3.9159-3.4112v-.0414a1.9721,1.9721,0,0,0-.4018-1.2931,1.3533,1.3533,0,0,0-1.11-.49,1.3361,1.3361,0,0,0-1.1028.49,1.9959,1.9959,0,0,0-.3948,1.2931v.0414Z"/><path class="cls-5" d="M94.4425,63.2685a2.3159,2.3159,0,0,1-.9125-.7541,1.851,1.851,0,0,1,.4161-2.5472,4.4848,4.4848,0,0,1,2.0554-.7766l1.8664-.2718v-.286a1.2273,1.2273,0,0,0-.299-.9,1.33,1.33,0,0,0-.9681-.2991,1.3948,1.3948,0,0,0-.7281.1691,2.4064,2.4064,0,0,0-.442.3344c-.11.1182-.1821.1963-.2187.2317a.2056.2056,0,0,1-.2045.1631H93.9591a.3.3,0,0,1-.21-.0815.2784.2784,0,0,1-.0886-.2175,1.4675,1.4675,0,0,1,.3333-.7766,2.5186,2.5186,0,0,1,.9869-.7493,3.8467,3.8467,0,0,1,1.6347-.3133,3.2533,3.2533,0,0,1,2.3427.721,2.5371,2.5371,0,0,1,.7352,1.8936v4.2763a.326.326,0,0,1-.0887.2317.3092.3092,0,0,1-.2388.0958H98.2627a.3251.3251,0,0,1-.3263-.3275v-.5307a2.209,2.209,0,0,1-.8522.714,3.0036,3.0036,0,0,1-1.3687.28,2.888,2.888,0,0,1-1.273-.28m2.9621-1.5035a1.9719,1.9719,0,0,0,.4763-1.43v-.286l-1.3616.2174a3.0014,3.0014,0,0,0-1.1915.3948.7954.7954,0,0,0-.4018.6678.7764.7764,0,0,0,.3675.6809,1.5546,1.5546,0,0,0,.8853.2446,1.6359,1.6359,0,0,0,1.2258-.4893"/><path class="cls-5" d="M101.5449,63.3175a.3149.3149,0,0,1-.0957-.2317V54.0709a.3073.3073,0,0,1,.0957-.2387.329.329,0,0,1,.2317-.09h1.13a.3073.3073,0,0,1,.3274.3286v9.0149a.3279.3279,0,0,1-.0886.2317.3084.3084,0,0,1-.2388.0946h-1.13a.3139.3139,0,0,1-.2317-.0946"/><path class="cls-5" d="M106.3865,62.7658a2.6409,2.6409,0,0,1-.6194-1.8995v-3.092H104.69a.3.3,0,0,1-.23-.1029.3311.3311,0,0,1-.0958-.2375v-.7766a.3269.3269,0,0,1,.3263-.3262h1.0767v-2.26a.3111.3111,0,0,1,.0946-.24.3334.3334,0,0,1,.2317-.0886h1.1039a.3056.3056,0,0,1,.3263.3286v2.26h1.702a.3053.3053,0,0,1,.3274.3262v.7766a.3293.3293,0,0,1-.0957.2446.3149.3149,0,0,1-.2317.0958h-1.702v2.9549a1.5785,1.5785,0,0,0,.2044.8853.7631.7631,0,0,0,.6809.2991h.94a.3249.3249,0,0,1,.3263.3285v.844a.3323.3323,0,0,1-.0875.2316.3116.3116,0,0,1-.2388.0946h-1.1028a2.4592,2.4592,0,0,1-1.8592-.6465"/><path class="cls-5" d="M110.9961,63.3175a.315.315,0,0,1-.0958-.2317V54.0709a.3074.3074,0,0,1,.0958-.2387.329.329,0,0,1,.2317-.09h1.2115a.3074.3074,0,0,1,.3274.3286V57.176a2.7193,2.7193,0,0,1,2.2055-.9811,2.5715,2.5715,0,0,1,2.0023.8239,3.2085,3.2085,0,0,1,.7494,2.24v3.8272a.328.328,0,0,1-.0887.2317.3074.3074,0,0,1-.2375.0946h-1.2269a.31.31,0,0,1-.2305-.0946.315.315,0,0,1-.0958-.2317V59.3413a1.8325,1.8325,0,0,0-.3888-1.2469,1.41,1.41,0,0,0-1.1229-.4421,1.4921,1.4921,0,0,0-1.1442.4492,1.7362,1.7362,0,0,0-.4219,1.24v3.7445a.328.328,0,0,1-.0887.2317.3083.3083,0,0,1-.2387.0946h-1.2115a.3139.3139,0,0,1-.2317-.0946"/><path class="cls-5" d="M120.42,63.2425a2.68,2.68,0,0,1-1.0283-.7222,1.2319,1.2319,0,0,1-.3333-.7151.2752.2752,0,0,1,.0945-.2175.3276.3276,0,0,1,.2187-.0828h1.0756a.2618.2618,0,0,1,.2045.0958c.0366.0284.1312.1087.2848.2447a1.67,1.67,0,0,0,.5449.34,1.8753,1.8753,0,0,0,.695.1241,1.6926,1.6926,0,0,0,.9-.2187.7132.7132,0,0,0,.1974-1.0614,1.355,1.355,0,0,0-.565-.3215,9.91,9.91,0,0,0-1.2127-.305,3.6431,3.6431,0,0,1-1.7091-.7493,1.7194,1.7194,0,0,1-.5508-1.3345,1.8027,1.8027,0,0,1,.3262-1.0283,2.348,2.348,0,0,1,.9739-.79,3.5745,3.5745,0,0,1,1.5461-.3074,3.9089,3.9089,0,0,1,1.5791.2932,2.8227,2.8227,0,0,1,1.0153.6938,1.1747,1.1747,0,0,1,.3463.7163.2869.2869,0,0,1-.0886.21.284.284,0,0,1-.21.0874h-1.0083a.3856.3856,0,0,1-.2316-.0945,3.5816,3.5816,0,0,1-.2991-.2577,1.5018,1.5018,0,0,0-.4763-.3,1.7065,1.7065,0,0,0-.6406-.1088,1.241,1.241,0,0,0-.7837.2187.69.69,0,0,0-.2789.5709.6416.6416,0,0,0,.1359.422,1.3059,1.3059,0,0,0,.5319.3132,7.5417,7.5417,0,0,0,1.1855.3,3.7121,3.7121,0,0,1,1.8711.8037,1.78,1.78,0,0,1,.5662,1.3333,1.8359,1.8359,0,0,1-.831,1.5531,3.9285,3.9285,0,0,1-2.3285.5993,4.2478,4.2478,0,0,1-1.7162-.3061"/><path class="cls-5" d="M127.3718,62.7184a3.1637,3.1637,0,0,1-.9468-2.3013l-.013-.5449.013-.5449a3.1593,3.1593,0,0,1,.9468-2.3013,3.3641,3.3641,0,0,1,2.39-.8321,3.9134,3.9134,0,0,1,1.8049.3817,2.8123,2.8123,0,0,1,1.1028.9338,2.1414,2.1414,0,0,1,.3888,1.0413.27.27,0,0,1-.0886.2317.338.338,0,0,1-.2388.0945h-1.1985a.3247.3247,0,0,1-.2116-.0614.5774.5774,0,0,1-.1418-.21,1.5993,1.5993,0,0,0-.5378-.7624,1.4621,1.4621,0,0,0-.8522-.2316,1.3822,1.3822,0,0,0-1.0886.4432,2.0569,2.0569,0,0,0-.422,1.34l-.0142.5035.0142.45q.0532,1.7836,1.5106,1.7836a1.4651,1.4651,0,0,0,.8581-.23,1.6135,1.6135,0,0,0,.5319-.7635.5838.5838,0,0,1,.1418-.2116.3316.3316,0,0,1,.2116-.06h1.1985a.3389.3389,0,0,1,.2388.0958.2676.2676,0,0,1,.0886.23,2.1374,2.1374,0,0,1-.3817,1.0213,2.8753,2.8753,0,0,1-1.09.94,3.8174,3.8174,0,0,1-1.825.3948,3.3687,3.3687,0,0,1-2.39-.83"/><path class="cls-5" d="M135.1421,62.724a3.1713,3.1713,0,0,1-.9409-2.2528l-.013-.5993.013-.5992a3.1543,3.1543,0,0,1,.9539-2.247,4.0316,4.0316,0,0,1,4.9028,0,3.1591,3.1591,0,0,1,.9538,2.247c.0083.1087.013.3085.013.5992s-.0047.4894-.013.5993a3.1758,3.1758,0,0,1-.94,2.2528,4.0994,4.0994,0,0,1-4.93,0m3.5813-.98a2.1615,2.1615,0,0,0,.4362-1.3416c.0083-.091.013-.2671.013-.5307s-.0047-.4408-.013-.5307a2.1649,2.1649,0,0,0-.4362-1.3427,1.5955,1.5955,0,0,0-2.2339,0,2.1574,2.1574,0,0,0-.435,1.3427l-.0141.5307.0141.5307a2.154,2.154,0,0,0,.435,1.3416,1.5955,1.5955,0,0,0,2.2339,0"/><path class="cls-5" d="M142.6451,65.9115a.3109.3109,0,0,1-.0957-.2388V56.6578a.3109.3109,0,0,1,.0957-.2388.3334.3334,0,0,1,.2317-.0886h1.0756a.3285.3285,0,0,1,.2387.0886.324.324,0,0,1,.0887.2388v.5449a2.5662,2.5662,0,0,1,2.1784-1.0082,2.62,2.62,0,0,1,2.111.864,3.7146,3.7146,0,0,1,.79,2.3367c.01.1088.0142.2684.0142.4764,0,.2175-.0047.3818-.0142.4893a3.7048,3.7048,0,0,1-.79,2.3084,2.5936,2.5936,0,0,1-2.111.8794,2.4558,2.4558,0,0,1-2.0969-.9669v3.0909a.3054.3054,0,0,1-.3274.3274h-1.1571a.3334.3334,0,0,1-.2317-.0886m4.8757-5.631c.0082-.091.013-.2269.013-.4089s-.0048-.318-.013-.4078q-.0959-1.812-1.5662-1.812a1.3743,1.3743,0,0,0-1.1713.5036,2.2058,2.2058,0,0,0-.422,1.24l-.0141.5166.0141.5319a1.8793,1.8793,0,0,0,.4291,1.1642,1.4255,1.4255,0,0,0,1.1642.4834q1.47,0,1.5662-1.8108"/><path class="cls-5" d="M151.544,62.67a3.4912,3.4912,0,0,1-.9456-2.4716l-.0142-.34.0142-.34a3.5074,3.5074,0,0,1,.96-2.4384,3.2445,3.2445,0,0,1,2.39-.8853,3.1647,3.1647,0,0,1,2.4857.9811,3.7731,3.7731,0,0,1,.8782,2.6145v.286a.3151.3151,0,0,1-.0957.2317.3344.3344,0,0,1-.2447.0957h-4.5211v.1088a2.1554,2.1554,0,0,0,.4149,1.26,1.2694,1.2694,0,0,0,1.0685.5106,1.56,1.56,0,0,0,1.2943-.6277.863.863,0,0,1,.1974-.19.492.492,0,0,1,.2257-.04h1.17a.3121.3121,0,0,1,.2116.0756.2277.2277,0,0,1,.0886.1832,1.2688,1.2688,0,0,1-.3877.7683,3.2389,3.2389,0,0,1-1.111.7706,4.0291,4.0291,0,0,1-1.6749.3263,3.276,3.276,0,0,1-2.4041-.8782m3.9159-3.4112v-.0414a1.9721,1.9721,0,0,0-.4019-1.2931,1.3532,1.3532,0,0,0-1.11-.49,1.3361,1.3361,0,0,0-1.1028.49,1.9959,1.9959,0,0,0-.3948,1.2931v.0414Z"/></g></g></svg>